<svg width="445" height="590" viewBox="0 0 445 590" fill="none" xmlns="http://www.w3.org/2000/svg">
<path fill-rule="evenodd" clip-rule="evenodd" d="M163.228 3.1434C157.624 6.24715 157.979 6.38336 168.613 5.18419C179.138 3.99717 180.226 4.38879 182.945 10.3579C185.468 15.8941 185.183 17.7597 180.96 23.4345C173.807 33.0425 165.082 35.526 157.028 30.2501C150.65 26.0712 150.468 24.8015 154.559 13.0263C156.225 8.22956 156.196 8.22712 152.404 12.8827C147.22 19.2435 147.561 25.4096 153.421 31.2693C160.633 38.4814 171.839 37.5473 180.364 29.0242C189.328 20.0608 189.578 11.3868 181.065 4.69041C173.614 -1.17169 171.372 -1.36628 163.228 3.1434ZM131.529 23.7945C131.529 25.2296 132.76 26.1296 134.265 25.7964C135.771 25.4631 137.503 26.5553 138.116 28.2264C139.726 32.6168 131.48 35.1076 128.887 31.0163C127.185 28.3261 126.73 28.5377 126.701 32.0379C126.674 35.4311 128.218 36.2776 133.353 35.6865C138.651 35.0784 140.042 33.6603 140.042 28.8709C140.042 25.0448 138.478 22.5224 135.786 22.0018C133.443 21.5518 131.529 22.357 131.529 23.7945ZM22.0216 64.1749C6.09175 87.3314 -3.83736 120.322 1.41422 132.657C2.44799 135.089 3.59366 145.836 3.95853 156.538C4.71744 178.826 8.48525 190.879 20.6303 209.866C31.6078 227.024 43.6798 235.652 72.1512 246.683C98.3702 256.843 102.843 261.08 116.922 289.08C126.679 308.483 137.23 319.891 150.511 325.393C154.788 327.164 158.285 329.373 158.285 330.299C158.285 331.229 166.989 331.917 177.623 331.829C189.856 331.73 196.112 332.523 194.648 333.984C191.792 336.84 176.222 337.183 168.015 334.571C162.479 332.81 162.318 332.946 166.217 336.091C170.202 339.302 170.457 346.553 169.866 439.68L169.231 539.817L141.259 552.582C104.765 569.235 92.6103 575.714 92.6103 578.517C92.6103 585.208 158.468 591.951 199.636 589.477C227.076 587.828 267.107 582.44 269.466 580.081C272.512 577.038 264.869 571.995 237.597 559.048C221.402 551.356 204.046 543.626 199.028 541.865L189.907 538.664L190.009 438.816L190.114 338.968L197.914 334.038C202.208 331.326 210.731 327.2 216.858 324.873C231.786 319.2 238.317 311.808 253.835 283.023L266.949 258.699L297.145 243.611C320.102 232.14 329.997 225.662 338.432 216.577L349.529 204.629L370.085 203.549C386.905 202.666 393.001 201.187 403.621 195.406C420.519 186.209 436.588 168.167 441.766 152.578C453.352 117.695 432.625 75.2447 398.467 63.8976C372.413 55.2455 328.559 63.8368 309.112 81.406L300.037 89.6057L285.715 86.947C277.612 85.4414 257.129 84.7603 238.555 85.3757C208.208 86.3827 203.358 87.2316 174.587 96.5696C157.463 102.128 140.665 106.674 137.252 106.674C128.121 106.674 119.019 95.3388 112.157 75.4199C108.861 65.8532 105.395 58.0257 104.456 58.0257C103.515 58.0257 100.681 60.8595 98.1586 64.3232C93.6124 70.5624 93.4275 70.594 78.422 67.641C70.0885 66.0016 56.7395 65.2524 48.7514 65.9773L34.2323 67.2932V60.2271C34.2323 50.3029 30.8051 51.412 22.0216 64.1749ZM37.898 70.1878C41.0747 70.1878 44.4242 71.3991 45.3387 72.8804C46.499 74.7582 47.6471 74.5734 49.1309 72.2723C50.9236 69.4921 51.5949 69.4921 53.3876 72.2723C55.0951 74.9188 55.8954 74.9577 57.4376 72.4645C58.8192 70.2291 60.0208 71.0099 61.7186 75.2447L64.0805 81.1336L65.9413 75.0526C67.1599 71.0659 67.8848 70.4383 68.0429 73.2283C68.3396 78.4044 73.1509 78.9785 73.1509 73.8364C73.1509 71.8296 74.2455 70.1878 75.5834 70.1878C76.9212 70.1878 78.0158 71.0075 78.0133 72.0121C78.0133 73.0167 81.8103 73.7269 86.449 73.5931C92.1432 73.4302 96.3732 71.5159 99.4575 67.7067L104.03 62.0611L110.895 80.0244C122.48 110.347 129.291 113.577 161.934 104.241C181.778 98.5666 180.885 98.6931 178.961 101.809C178.134 103.147 179.165 104.241 181.25 104.241C183.334 104.241 185.042 105.336 185.042 106.674C185.042 108.012 187.231 109.106 189.907 109.106C192.582 109.106 194.772 108.012 194.772 106.674C194.772 105.336 192.857 104.224 190.515 104.205C187.148 104.176 186.959 103.723 189.61 102.043C191.454 100.875 192.247 98.7637 191.374 97.348C188.999 93.5072 205.267 89.6835 228.825 88.5476C240.197 87.9978 245.67 88.3019 240.987 89.2213C235.145 90.3694 233.471 91.5345 235.653 92.9332C237.402 94.0521 241.78 94.3099 245.383 93.5048L251.933 92.0405L245.852 95.621L239.771 99.2039L247.27 99.2915C252.811 99.3547 254.782 98.265 254.808 95.1199C254.83 92.7799 253.643 89.9535 252.174 88.8394C250.702 87.7278 258.372 87.4068 269.218 88.1292C304.41 90.4692 351.105 108.875 361.292 124.421C365.522 130.879 364.34 137.111 358.454 139.368C349.223 142.912 219.101 157.698 196.883 157.73C181.291 157.754 180.423 157.428 171.019 148.025C165.668 142.673 159.813 138.295 158.008 138.295C156.201 138.295 158.67 140.978 163.496 144.254C168.319 147.533 172.982 152.077 173.853 154.351C175.32 158.17 172.787 158.358 140.714 156.823C97.5237 154.755 68.561 151.445 40.3134 145.347C3.29691 137.354 0.229634 134.71 3.59123 113.677C5.41067 102.3 16.8771 76.0255 24.9819 64.6638L30.5837 56.8095L31.3524 63.4987C31.9532 68.7016 33.4053 70.1878 37.898 70.1878ZM393.39 66.5148C412.738 72.2602 424.25 82.1528 433.53 101.004C444.383 123.051 444.61 140.932 434.272 159.926C420.706 184.851 399.223 198.239 369.672 200.19L351.662 201.377L367.94 197.93C389.564 193.35 402.232 186.559 417.289 171.476C432.944 155.789 437.169 143.119 433.45 123C430.217 105.511 423.803 93.1789 412.071 81.8876C399.96 70.2316 392.836 67.7554 371.404 67.7554C348.634 67.7554 332.062 72.8002 319.496 83.5538C313.962 88.2921 308.808 91.1527 308.042 89.9121C304.486 84.1546 331.082 70.2388 356.527 64.5446C366.816 62.2411 381.673 63.0365 393.39 66.5148ZM130.899 70.6232C132.56 72.6372 133.2 75.0039 132.319 75.8845C129.303 78.9006 124.589 77.485 123.475 73.2283C122.687 70.2121 122.293 70.0345 122.118 72.6202C121.648 79.6182 126.107 83.8263 130.853 80.8684C136.121 77.5823 136.535 69.8253 131.529 68.1713C128.542 67.1837 128.428 67.6289 130.899 70.6232ZM386.205 72.7418C392.624 74.1477 399.929 76.8282 402.434 78.7012C406.722 81.9071 406.134 82.9336 392.408 96.2145C384.386 103.974 376.862 112.103 375.69 114.278C374.155 117.121 371.336 117.899 365.668 117.046C358.184 115.917 357.468 114.861 351.594 96.2704C348.191 85.4998 346.267 75.8407 347.318 74.8069C348.369 73.7731 354.155 72.501 360.176 71.9829C366.196 71.4623 371.888 70.8469 372.827 70.6134C373.763 70.3799 379.783 71.3383 386.205 72.7418ZM346.943 93.928L351.957 110.322L334.326 101.809C324.631 97.1266 316.628 92.5148 316.546 91.5589C316.314 88.9416 334.013 77.4825 338.24 77.5093C340.673 77.5263 343.643 83.1257 346.943 93.928ZM418.116 93.9037C422.465 100.014 430.711 123.384 430.718 129.616C430.721 131.282 422.21 132.214 407.002 132.214C384.517 132.214 383.125 131.915 380.231 126.44C377.619 121.499 377.908 119.485 382.228 112.495C387.968 103.208 405.735 87.2146 410.313 87.2146C411.986 87.2146 415.499 90.2235 418.116 93.9037ZM19.6379 100.508C19.6379 105.195 27.244 109.106 36.3607 109.106C44.9009 109.106 48.0387 105.506 43.8744 100.486C39.822 95.604 19.6379 95.621 19.6379 100.508ZM31.8364 102.417C31.8656 104.784 32.3132 104.767 33.8553 102.334C34.945 100.617 37.6596 99.9117 39.8853 100.766C42.1133 101.619 43.3296 103.298 42.5877 104.497C40.508 107.863 30.8221 107.07 25.5754 103.103C20.9733 99.6199 20.9903 99.5299 26.327 99.4545C29.3359 99.4107 31.8169 100.746 31.8364 102.417ZM309.095 101.546C309.095 104.025 321.179 107.562 323.098 105.645C323.794 104.947 321.405 103.251 317.788 101.877C309.766 98.8269 309.095 98.8026 309.095 101.546ZM74.9242 104.465C68.0891 108.445 72.4577 111.541 84.8484 111.502C99.3188 111.454 105.144 108.345 97.964 104.502C91.7151 101.157 80.6355 101.14 74.9242 104.465ZM85.313 106.674C85.313 108.012 83.3987 109.089 81.0563 109.07C77.4174 109.038 77.3298 108.688 80.4482 106.674C85.0382 103.706 85.313 103.706 85.313 106.674ZM248.285 106.674C248.285 108.012 251.634 109.106 255.725 109.106C260.067 109.106 262.541 108.092 261.663 106.674C260.836 105.336 257.489 104.241 254.222 104.241C250.955 104.241 248.285 105.336 248.285 106.674ZM311.527 108.778C311.527 111.638 320.965 115.073 323.062 112.976C324.932 111.106 323.675 110.079 317 108.029C313.853 107.061 311.527 107.379 311.527 108.778ZM55.2703 118.203C56.7078 123.927 56.3308 124.28 50.3957 122.791C46.8566 121.903 43.962 122.173 43.962 123.394C43.962 126.515 51.1522 128.918 54.4262 126.894C55.927 125.968 60.6727 125.445 64.9707 125.734C69.2688 126.024 73.4404 125.201 74.2407 123.907C75.0652 122.572 72.7764 121.755 68.9502 122.02C63.9905 122.36 62.2854 121.412 62.5091 118.432C62.677 116.204 60.7651 113.845 58.2646 113.19C54.4384 112.191 53.9616 112.986 55.2703 118.203ZM253.15 113.711C253.15 116.408 260.632 119.461 262.548 117.544C263.322 116.771 262.344 115.122 260.376 113.876C255.828 110.999 253.15 110.938 253.15 113.711ZM188.691 116.403C187.81 117.826 190.335 118.836 194.772 118.836C199.208 118.836 201.733 117.826 200.853 116.403C200.026 115.066 197.289 113.971 194.772 113.971C192.254 113.971 189.518 115.066 188.691 116.403ZM312.744 118.836C313.571 120.174 315.276 121.268 316.536 121.268C317.796 121.268 318.825 120.174 318.825 118.836C318.825 117.498 317.117 116.403 315.033 116.403C312.948 116.403 311.917 117.498 312.744 118.836ZM371.795 122.623C380.73 128.879 377.918 145.592 367.933 145.592C365.328 145.592 364.882 143.544 366.089 137.113C366.972 132.406 366.515 126.454 365.06 123.735C361.92 117.87 364.42 117.457 371.795 122.623ZM253.15 123.669C253.15 125.35 258.871 128.565 261.862 128.565C265.18 128.565 262.064 124.056 258.014 122.995C255.339 122.297 253.15 122.599 253.15 123.669ZM195.988 126.133C202.631 128.989 204.501 128.989 204.501 126.133C204.501 124.795 201.49 123.779 197.812 123.871C191.884 124.024 191.678 124.28 195.988 126.133ZM309.095 126.133C309.095 127.471 310.803 128.565 312.887 128.565C314.972 128.565 316.003 127.471 315.176 126.133C314.349 124.795 312.644 123.701 311.384 123.701C310.124 123.701 309.095 124.795 309.095 126.133ZM304.23 131.083C304.23 134.569 309.382 136.549 311.9 134.031C313.454 132.477 312.534 131.192 309.256 130.336C306.492 129.611 304.23 129.95 304.23 131.083ZM250.717 133.43C250.717 134.768 252.906 135.863 255.582 135.863C258.258 135.863 260.447 134.768 260.447 133.43C260.447 132.092 258.258 130.998 255.582 130.998C252.906 130.998 250.717 132.092 250.717 133.43ZM193.555 135.863C194.382 137.201 197.182 138.295 199.78 138.295C202.378 138.295 204.501 137.201 204.501 135.863C204.501 134.525 201.699 133.43 198.277 133.43C194.747 133.43 192.702 134.484 193.555 135.863ZM430.716 139.959C430.716 152.559 412.713 174.757 394.816 184.231C389.861 186.853 389.075 186.471 386.84 180.351C385.478 176.62 382.116 167.914 379.37 161.009C374.634 149.09 374.588 148.132 378.501 142.158C382.478 136.089 383.49 135.863 406.671 135.863C427.592 135.863 430.716 136.395 430.716 139.959ZM245.852 143.16C245.852 144.498 248.041 145.592 250.717 145.592C253.393 145.592 255.582 144.498 255.582 143.16C255.582 141.822 253.393 140.727 250.717 140.727C248.041 140.727 245.852 141.822 245.852 143.16ZM359.042 162.619C353.17 201.652 338.53 220.026 297.986 239.252C275.117 250.096 269.323 254.058 259.469 265.593C253.089 273.06 248.581 280.321 249.455 281.732C250.325 283.14 247.09 290.79 242.267 298.729C235.198 310.366 231.041 314.353 220.825 319.293C194.723 331.912 175.986 332.634 152.204 321.932C135.503 314.418 131.091 309.549 117.975 284.157C104.999 259.028 99.168 253.769 73.6569 244.185C63.9029 240.519 50.7679 234.076 44.4679 229.868C31.7488 221.367 13.8657 196.787 10.042 182.553C7.25444 172.174 6.01878 146.239 8.20551 144.05C9.02037 143.235 24.7897 145.42 43.2444 148.903C79.7939 155.804 123.161 160.121 156.291 160.162C176.3 160.184 177.453 160.474 178.28 165.66C180.343 178.564 169.839 196.673 160.295 196.673C154.977 196.673 154.802 194.62 159.579 188.303C161.542 185.705 163.15 181.054 163.15 177.965C163.15 171.913 155.337 162.57 150.38 162.697C148.709 162.738 150.348 165.02 154.029 167.764C162.014 173.723 162.493 180.05 155.68 189.619C151.081 196.079 150.998 196.828 154.749 198.268C166.789 202.89 181.393 187.919 181.393 170.955V160.187H200.733C219.721 160.187 310.883 150.306 344.365 144.617C353.73 143.026 361.562 141.773 361.771 141.834C361.981 141.895 360.752 151.248 359.042 162.619ZM194.285 146.079C196.555 148.348 197.853 148.348 200.123 146.079C202.392 143.809 201.745 143.16 197.204 143.16C192.663 143.16 192.016 143.809 194.285 146.079ZM375.485 162.011C383.203 179.305 385.556 188.437 382.734 190.181C381.544 190.915 375.057 192.248 368.317 193.141L356.062 194.768L360.412 178.084C362.803 168.909 364.824 158.394 364.899 154.714C365.118 144.303 368.675 146.755 375.485 162.011ZM285.887 157.917C283.851 161.211 279.42 230.819 280.986 234.898C282.231 238.145 289.636 236.496 289.636 232.974C289.636 231.823 287.821 231.575 285.605 232.427C282.049 233.791 281.755 232.415 283.1 220.795C283.941 213.549 285.367 196.979 286.269 183.978C287.305 169.067 288.816 160.897 290.365 161.853C291.759 162.716 292.071 162.157 291.083 160.564C290.052 158.893 290.905 157.754 293.192 157.754C300.766 157.754 302.87 168.471 299.779 191.28C298.198 202.941 296.201 215.22 295.342 218.564C294.483 221.909 294.661 223.838 295.734 222.85C298.66 220.158 304.038 189.908 304.14 175.562C304.199 167.258 302.929 161.666 300.409 159.143C296.021 154.758 288.244 154.101 285.887 157.917ZM21.3114 175.197C35.1396 200.621 60.9524 212.464 102.34 212.374C131.147 212.313 146.123 207.886 146.123 199.431C146.123 192.822 143.606 192.367 114.402 193.705C84.88 195.06 66.1845 191 53.75 180.539C49.5906 177.038 45.616 174.75 44.9155 175.45C42.6193 177.746 59.5173 188.787 71.9347 193.102C82.9876 196.943 112.928 198.307 136.148 196.028C145.79 195.082 144.917 201.26 134.783 205.668C122.096 211.185 84.0336 211.214 65.698 205.721C47.8709 200.377 33.1232 189.395 23.9384 174.621C14.1698 158.905 12.6325 159.241 21.3114 175.197ZM290.453 168.863C288.529 173.879 293.571 179.116 297.013 175.674C299.798 172.889 297.697 165.052 294.165 165.052C292.927 165.052 291.258 166.766 290.453 168.863ZM316.392 176.294C316.392 179.527 317.051 179.695 320.041 177.214C322.048 175.547 323.69 173.772 323.69 173.268C323.69 172.762 322.048 172.349 320.041 172.349C318.034 172.349 316.392 174.124 316.392 176.294ZM325.108 178.778C323.072 184.085 325.777 186.552 328.649 182.008C331.527 177.459 331.588 174.781 328.815 174.781C327.62 174.781 325.952 176.579 325.108 178.778ZM198.559 182.621C193.264 190.181 193.774 194.148 201.648 206.563C217.186 231.065 260.539 258.312 260.41 243.497C260.379 239.919 260.011 239.811 258.104 242.828C256.149 245.919 254.358 245.695 245.127 241.21C223.683 230.792 189.948 193.01 199.303 189.891C200.84 189.38 201.558 188.084 200.894 187.011C200.232 185.939 201.196 183.813 203.037 182.285C205.708 180.067 208.872 182.679 218.767 195.269C230.835 210.625 256.779 232.775 259.503 230.048C260.252 229.301 258.374 227.355 255.334 225.728C246.852 221.189 227.137 201.988 217.554 188.933C207.997 175.912 204.151 174.635 198.559 182.621ZM332.308 181.911C330.646 184.598 334.482 187.503 336.73 185.255C339.04 182.942 338.61 179.646 335.995 179.646C334.735 179.646 333.076 180.665 332.308 181.911ZM338.333 186.853C336.224 190.794 336.404 192.708 339.143 195.447C342.188 198.492 343.056 198.5 345.54 195.505C348.936 191.416 348.006 184.1 343.922 182.74C342.339 182.215 339.824 184.063 338.333 186.853ZM343.45 190.025C341.047 192.409 340.77 192.129 342.088 188.663C343.003 186.265 344.363 184.915 345.112 185.664C345.861 186.41 345.114 188.373 343.45 190.025ZM202.069 193.776C202.069 194.858 203.638 197.867 205.554 200.465C208.281 204.162 209.685 204.549 212.017 202.248C214.37 199.932 214.34 198.519 211.884 195.559C208.607 191.611 202.069 190.422 202.069 193.776ZM131.49 220.637C97.4532 238.724 110.33 290.641 154.172 312.09C184.001 326.685 224.826 315.921 243.644 288.501C248.82 280.96 248.596 281.043 238.849 290.303C230.552 298.184 228.212 299.345 226.427 296.457C224.792 293.813 227.473 289.866 236.864 281.077C249.423 269.329 249.433 269.309 238.36 277.918C217.203 294.368 191.816 301.5 172.724 296.36C145.423 289.007 124.127 246.671 145.087 241.41C152.063 239.658 158.062 243.193 176.558 259.942C196.963 278.421 209.787 283.227 221.689 276.857C233.78 270.384 223.844 254.126 196.618 235.837C168.125 216.696 147.824 211.958 131.49 220.637ZM168.526 223.882C177.937 227.929 179.846 229.564 176.526 230.726C172.933 231.986 173.821 233.234 181.566 237.805C186.737 240.855 191.332 242.263 191.775 240.933C192.935 237.45 205.411 244.212 215.668 253.885C229.601 267.025 224.226 279.358 206.048 275.95C199.571 274.734 192.862 270.134 181.936 259.417C173.61 251.251 169.606 246.929 173.036 249.811C176.468 252.694 180.846 255.007 182.765 254.951C187.148 254.827 170.664 240.456 166.14 240.456C164.337 240.456 163.51 241.504 164.303 242.786C165.094 244.068 162.698 243.526 158.974 241.585C150.842 237.343 139.775 236.953 137.381 240.823C136.17 242.789 134.742 242.383 132.611 239.466C129.797 235.62 129.279 235.725 125.684 240.855C123.548 243.908 121.799 245.408 121.799 244.195C121.799 242.981 124.178 239.452 127.087 236.355C131.025 232.166 131.461 230.726 128.79 230.726C126.817 230.726 123.645 232.096 121.743 233.767C119.839 235.44 120.247 234.441 122.653 231.551C128.369 224.679 140.723 218.688 149.322 218.62C153.087 218.589 161.73 220.958 168.526 223.882ZM170.447 237.96C170.447 240.656 184.894 248.712 186.625 246.982C187.776 245.829 174.536 235.591 171.897 235.591C171.099 235.591 170.447 236.657 170.447 237.96ZM119.537 252.618C120.78 252.618 121.799 251.458 121.799 250.042C121.799 248.627 122.801 248.084 124.025 248.841C125.248 249.597 126.803 248.841 127.481 247.16C128.158 245.479 128.817 246.294 128.941 248.969C129.135 253.095 129.568 253.28 131.796 250.186C133.998 247.123 134.195 247.233 133.022 250.867C131.529 255.498 137.569 273.347 142.669 279.375C145.291 282.471 144.776 283.069 139.252 283.335C135.674 283.507 131.259 284.055 129.444 284.551C124.441 285.923 116.908 269.506 115.769 254.751C115.212 247.559 115.324 244.136 116.015 247.145C116.706 250.154 118.292 252.618 119.537 252.618ZM147.692 288.688C150.241 287.973 165.303 295.679 170.861 300.544C174.629 303.842 174.634 304.436 170.927 308.763C165.787 314.768 164.466 314.661 151.762 307.216C143.144 302.166 141.594 300.235 143.472 296.881C145.114 293.945 144.603 291.366 141.694 287.932C138.05 283.629 138.043 283.439 141.611 286.19C143.81 287.888 146.547 289.012 147.692 288.688ZM216.454 301.057C221.039 305.642 220.932 305.788 209.315 310.787C201.57 314.119 193.079 315.72 184.592 315.452C173.814 315.111 173.208 314.883 180.953 314.078C187.922 313.355 189.627 312.375 187.781 310.149C184.11 305.725 187.547 302.266 198.42 299.437C211.888 295.932 211.273 295.876 216.454 301.057ZM186.893 442.92C186.285 541.269 186.064 545.694 181.685 546.538C179.17 547.022 176.176 545.942 175.033 544.137C173.889 542.335 172.938 495.708 172.916 440.521L172.88 340.185H180.204H187.528L186.893 442.92ZM182.072 549.371C184.911 549.371 188.185 547.669 189.35 545.587C191.237 542.215 192.831 542.339 203.942 546.718C230.453 557.167 266.316 576.59 262.731 578.558C255.774 582.377 212.292 586.524 178.961 586.546C143.338 586.568 97.4751 581.91 97.4751 578.268C97.4751 577.101 109.79 570.339 124.84 563.241C171.666 541.155 168.745 542.201 173.072 546C175.183 547.854 179.233 549.371 182.072 549.371Z" fill="#C5A9C8"/>
</svg>
